<?xml version="1.0" encoding="UTF-8"?>
<svg width="1133px" height="822px" viewBox="0 0 1133 822" xmlns="http://www.w3.org/2000/svg" xmlns:xlink="http://www.w3.org/1999/xlink" version="1.1">
 <!-- Generated by Pixelmator Pro 2.1.4 -->
 <g id="group">
  <path id="路径" d="M11.5 741.5 L11.5 16.5" fill="none" stroke="#000000" stroke-width="3.026" stroke-opacity="1" stroke-linejoin="round" stroke-linecap="round"/>
  <path id="路径-1" d="M10.5 0 L21 21 C14.389 17.689 6.607 17.689 0 21 Z" fill="#000000" fill-opacity="1" stroke="none"/>
  <path id="路径-2" d="M397 214.496 C147.566 -335 240.201 978 22 568.84" fill="none" stroke="#000000" stroke-width="3.783" stroke-opacity="1" stroke-linejoin="round" stroke-linecap="round"/>
  <path id="路径-3" d="M506 270.782 C468.375 206 459.281 310 397 214.511" fill="none" stroke="#000000" stroke-width="3.783" stroke-opacity="1" stroke-linejoin="round" stroke-linecap="round"/>
  <path id="路径-4" d="M721 437.485 C602.88 176 621.54 602 506 270.984" fill="none" stroke="#000000" stroke-width="3.783" stroke-opacity="1" stroke-linejoin="round" stroke-linecap="round"/>
  <path id="路径-5" d="M1053 574.435 C968.269 709 810.916 637.424 721 437" fill="none" stroke="#000000" stroke-width="3.783" stroke-opacity="1" stroke-linejoin="round" stroke-linecap="round"/>
  <path id="路径-6" d="M293 658 L293 78" fill="none" stroke="#000000" stroke-width="1.513" stroke-opacity="1" stroke-linejoin="round" stroke-linecap="round"/>
  <path id="路径-7" d="M284 640 L293.5 658 303 640" fill="none" stroke="#000000" stroke-width="1.513" stroke-opacity="1" stroke-linejoin="round" stroke-linecap="round"/>
  <path id="路径-8" d="M303 96 L293.5 78 284 96" fill="none" stroke="#000000" stroke-width="1.513" stroke-opacity="1" stroke-linejoin="round" stroke-linecap="round"/>
  <path id="路径-9" d="M13.5 660.5 L1117.5 660.5" fill="none" stroke="#000000" stroke-width="3.026" stroke-opacity="1" stroke-linejoin="round" stroke-linecap="round"/>
  <path id="路径-10" d="M1112 650 L1133 660.5 1112 671 C1115.31 664.39 1115.31 656.61 1112 650 Z" fill="#000000" fill-opacity="1" stroke="none"/>
  <path id="路径-11" d="M238 77 L348 77" fill="none" stroke="#000000" stroke-width="1.513" stroke-opacity="1" stroke-linejoin="round" stroke-linecap="round"/>
  <path id="路径-12" d="M432 246 L542 246" fill="none" stroke="#000000" stroke-width="1.513" stroke-opacity="1" stroke-linejoin="round" stroke-linecap="round"/>
  <path id="路径-13" d="M293 747 L293 658" fill="none" stroke="#000000" stroke-width="2.27" stroke-opacity="1" stroke-linejoin="round" stroke-linecap="round"/>
  <path id="路径-14" d="M101 818 L101 635" fill="none" stroke="#000000" stroke-width="6.053" stroke-opacity="1" stroke-linejoin="round" stroke-linecap="round"/>
  <path id="路径-15" d="M619 346 L727 346" fill="none" stroke="#000000" stroke-width="1.513" stroke-opacity="1" stroke-linejoin="round" stroke-linecap="round"/>
  <path id="路径-16" d="M483 660 L483 246" fill="none" stroke="#000000" stroke-width="1.513" stroke-opacity="1" stroke-linejoin="round" stroke-linecap="round"/>
  <path id="路径-17" d="M474 642 L483 660 492 642" fill="none" stroke="#000000" stroke-width="1.513" stroke-opacity="1" stroke-linejoin="round" stroke-linecap="round"/>
  <path id="路径-18" d="M492 264 L483 246 474 264" fill="none" stroke="#000000" stroke-width="1.513" stroke-opacity="1" stroke-linejoin="round" stroke-linecap="round"/>
  <path id="路径-19" d="M651 661 L651 348" fill="none" stroke="#000000" stroke-width="1.513" stroke-opacity="1" stroke-linejoin="round" stroke-linecap="round"/>
  <path id="路径-20" d="M642 643 L651 661 660 643" fill="none" stroke="#000000" stroke-width="1.513" stroke-opacity="1" stroke-linejoin="round" stroke-linecap="round"/>
  <path id="路径-21" d="M660 366 L651 348 642 366" fill="none" stroke="#000000" stroke-width="1.513" stroke-opacity="1" stroke-linejoin="round" stroke-linecap="round"/>
  <path id="路径-22" d="M949 822 L949 631" fill="none" stroke="#000000" stroke-width="6.053" stroke-opacity="1" stroke-linejoin="round" stroke-linecap="round"/>
  <path id="路径-23" d="M105 695 L294 696" fill="none" stroke="#000000" stroke-width="1.513" stroke-opacity="1" stroke-linejoin="round" stroke-linecap="round"/>
  <path id="路径-24" d="M114 686 L105 695 114 704" fill="none" stroke="#000000" stroke-width="1.513" stroke-opacity="1" stroke-linejoin="round" stroke-linecap="round"/>
  <path id="路径-25" d="M285 704 L294 695 285 686" fill="none" stroke="#000000" stroke-width="1.513" stroke-opacity="1" stroke-linejoin="round" stroke-linecap="round"/>
  <path id="路径-26" d="M651 754 L651 661" fill="none" stroke="#000000" stroke-width="2.27" stroke-opacity="1" stroke-linejoin="round" stroke-linecap="round"/>
  <path id="路径-27" d="M105.5 720.5 L650.5 720.5" fill="none" stroke="#000000" stroke-width="0.726" stroke-opacity="1" stroke-linejoin="round" stroke-linecap="round"/>
  <path id="路径-28" d="M114.5 712.5 L105.5 721 114.5 729.5" fill="none" stroke="#000000" stroke-width="0.726" stroke-opacity="1" stroke-linejoin="round" stroke-linecap="round"/>
  <path id="路径-29" d="M642.5 729.5 L650.5 721 642.5 712.5" fill="none" stroke="#000000" stroke-width="0.726" stroke-opacity="1" stroke-linejoin="round" stroke-linecap="round"/>
  <path id="路径-30" d="M651.5 686.5 L944.5 686.5" fill="none" stroke="#000000" stroke-width="0.726" stroke-opacity="1" stroke-linejoin="round" stroke-linecap="round"/>
  <path id="路径-31" d="M659.5 678.5 L651.5 686.5 659.5 694.5" fill="none" stroke="#000000" stroke-width="0.726" stroke-opacity="1" stroke-linejoin="round" stroke-linecap="round"/>
  <path id="路径-32" d="M935.5 694.5 L944.5 686.5 935.5 678.5" fill="none" stroke="#000000" stroke-width="0.726" stroke-opacity="1" stroke-linejoin="round" stroke-linecap="round"/>
  <path id="路径-33" d="M103.5 789.5 L946.5 789.5" fill="none" stroke="#000000" stroke-width="0.726" stroke-opacity="1" stroke-linejoin="round" stroke-linecap="round"/>
  <path id="路径-34" d="M112.5 781.5 L103.5 789.5 112.5 797.5" fill="none" stroke="#000000" stroke-width="0.726" stroke-opacity="1" stroke-linejoin="round" stroke-linecap="round"/>
  <path id="路径-35" d="M937.5 797.5 L946.5 789.5 937.5 781.5" fill="none" stroke="#000000" stroke-width="0.726" stroke-opacity="1" stroke-linejoin="round" stroke-linecap="round"/>
  <defs>
   <text id="string" transform="matrix(1.0 0.0 0.0 1.0 440.0 352.0)" y="28.0" x="1.0" font-family="Helvetica, Helvetica" text-decoration="none" font-size="37">h2</text>
  </defs>
  <use id="h2" xlink:href="#string" fill="#000000" fill-opacity="1" stroke="none"/>
  <path id="路径-36" d="M583 660 L583 405" fill="none" stroke="#000000" stroke-width="1.513" stroke-opacity="1" stroke-linejoin="round" stroke-linecap="round"/>
  <path id="路径-37" d="M573 642 L582.5 660 592 642" fill="none" stroke="#000000" stroke-width="1.513" stroke-opacity="1" stroke-linejoin="round" stroke-linecap="round"/>
  <path id="路径-38" d="M592 424 L582.5 405 573 424" fill="none" stroke="#000000" stroke-width="1.513" stroke-opacity="1" stroke-linejoin="round" stroke-linecap="round"/>
  <path id="路径-39" d="M556 406 L731 406" fill="none" stroke="#000000" stroke-width="1.513" stroke-opacity="1" stroke-linejoin="round" stroke-linecap="round"/>
  <defs>
   <text id="string-1" transform="matrix(1.0 0.0 0.0 1.0 709.0 370.0)" y="28.0" x="1.0" font-family="Helvetica, Helvetica" text-decoration="none" font-size="37">h5</text>
  </defs>
  <use id="h5" xlink:href="#string-1" fill="#000000" fill-opacity="1" stroke="none"/>
  <defs>
   <text id="string-2" transform="matrix(1.0 0.0 0.0 1.0 772.0 678.0)" y="28.0" x="1.0" font-family="Helvetica, Helvetica" text-decoration="none" font-size="37">t3</text>
  </defs>
  <use id="t3" xlink:href="#string-2" fill="#000000" fill-opacity="1" stroke="none"/>
  <defs>
   <text id="string-3" transform="matrix(1.0 0.0 0.0 1.0 938.0 601.0)" y="28.0" text-decoration="none" font-family="Helvetica, Helvetica" x="1.0" font-size="37">a</text>
  </defs>
  <use id="a" xlink:href="#string-3" fill="#000000" fill-opacity="1" stroke="none"/>
  <defs>
   <text id="string-4" transform="matrix(1.0 0.0 0.0 1.0 643.0 309.0)" x="1.0" font-size="37" y="28.0" text-decoration="none" font-family="Helvetica, Helvetica">f</text>
  </defs>
  <use id="f" xlink:href="#string-4" fill="#000000" fill-opacity="1" stroke="none"/>
  <defs>
   <text id="string-5" transform="matrix(1.0 0.0 0.0 1.0 573.0 370.0)" x="1.0" font-size="37" y="28.0" text-decoration="none" font-family="Helvetica, Helvetica">e</text>
  </defs>
  <use id="e" xlink:href="#string-5" fill="#000000" fill-opacity="1" stroke="none"/>
  <defs>
   <text id="string-6" transform="matrix(1.0 0.0 0.0 1.0 480.0 214.0)" x="1.0" y="28.0" font-family="Helvetica, Helvetica" text-decoration="none" font-size="37">d</text>
  </defs>
  <use id="d" xlink:href="#string-6" fill="#000000" fill-opacity="1" stroke="none"/>
  <defs>
   <text id="string-7" transform="matrix(1.0 0.0 0.0 1.0 427.0 266.0)" y="28.0" x="1.0" font-family="Helvetica, Helvetica" text-decoration="none" font-size="37">c</text>
  </defs>
  <use id="c" xlink:href="#string-7" fill="#000000" fill-opacity="1" stroke="none"/>
  <defs>
   <text id="string-8" transform="matrix(1.0 0.0 0.0 1.0 286.0 42.0)" y="28.0" x="1.0" font-family="Helvetica, Helvetica" text-decoration="none" font-size="37">b</text>
  </defs>
  <use id="b" xlink:href="#string-8" fill="#000000" fill-opacity="1" stroke="none"/>
  <defs>
   <text id="string-9" transform="matrix(1.0 0.0 0.0 1.0 492.0 769.0)" x="1.0" font-size="37" y="28.0" text-decoration="none" font-family="Helvetica, Helvetica">t</text>
  </defs>
  <use id="t" xlink:href="#string-9" fill="#000000" fill-opacity="1" stroke="none"/>
  <defs>
   <text id="string-10" transform="matrix(1.0 0.0 0.0 1.0 363.0 696.0)" x="1.0" text-decoration="none" font-size="37" y="28.0" font-family="Helvetica, Helvetica">t2</text>
  </defs>
  <use id="t2" xlink:href="#string-10" fill="#000000" fill-opacity="1" stroke="none"/>
  <defs>
   <text id="string-11" transform="matrix(1.0 0.0 0.0 1.0 180.0 675.0)" y="28.0" x="1.0" font-family="Helvetica, Helvetica" text-decoration="none" font-size="37">t1</text>
  </defs>
  <use id="t1" xlink:href="#string-11" fill="#000000" fill-opacity="1" stroke="none"/>
  <defs>
   <text id="string-12" transform="matrix(1.0 0.0 0.0 1.0 656.0 524.0)" y="28.0" x="1.0" font-family="Helvetica, Helvetica" text-decoration="none" font-size="37">h4</text>
  </defs>
  <use id="h4" xlink:href="#string-12" fill="#000000" fill-opacity="1" stroke="none"/>
 </g>
</svg>
